<svg xmlns="http://www.w3.org/2000/svg" viewBox="0 0 192 192" width="192" height="192">
  <defs>
    <linearGradient id="bg" x1="0" y1="0" x2="1" y2="1">
      <stop offset="0%" stop-color="#1c1408"/>
      <stop offset="100%" stop-color="#0a0a0a"/>
    </linearGradient>
  </defs>
  <rect width="192" height="192" rx="38" fill="url(#bg)"/>
  <circle cx="96" cy="80" r="54" fill="none" stroke="#c8a04a" stroke-width="2" opacity="0.5"/>
  <!-- Camel hump silhouette -->
  <path d="M44 108 C44 108 48 88 58 84 C64 81 68 86 72 82 C76 78 74 68 80 65 C86 62 90 68 88 75 C87 80 82 82 84 87 C88 93 100 90 106 97 C112 103 110 114 112 120 C116 114 118 100 126 96 C132 93 138 98 140 106 C142 113 140 122 144 128 L44 128 Z" fill="#c8a04a"/>
  <!-- Legs -->
  <rect x="60" y="124" width="8" height="20" rx="3" fill="#c8a04a"/>
  <rect x="76" y="124" width="8" height="20" rx="3" fill="#c8a04a"/>
  <rect x="104" y="124" width="8" height="20" rx="3" fill="#c8a04a"/>
  <rect x="120" y="124" width="8" height="20" rx="3" fill="#c8a04a"/>
  <!-- NAQA text -->
  <text x="96" y="168" font-family="Arial,sans-serif" font-size="18" font-weight="800" letter-spacing="5" fill="#c8a04a" text-anchor="middle" opacity="0.9">NAQA</text>
</svg>
